<svg viewBox="0 0 512 130" xmlns="http://www.w3.org/2000/svg" fill-rule="evenodd" clip-rule="evenodd" stroke-linejoin="round" stroke-miterlimit="2"><g transform="translate(0 1.249) scale(1.99222)"><clipPath id="prefix__a"><path d="M0 0h257v64H0z"/></clipPath><g fill-rule="nonzero" clip-path="url(#prefix__a)"><path d="M67.5 22.4h26v4.9H83.3v27.3h-5.6V27.2H67.5v-4.8zm24.9 8.8h4.8v4.5h.1c.2-.6.5-1.2.9-1.8.4-.6 1-1.2 1.6-1.6.6-.5 1.3-.9 2-1.2.7-.3 1.5-.5 2.3-.5h1.2c.2 0 .5.1.7.1v4.9c-.4-.1-.7-.1-1.1-.2-.4 0-.7-.1-1.1-.1-.9 0-1.7.2-2.4.5-.8.3-1.4.9-2 1.5-.6.7-1 1.5-1.4 2.5-.3 1-.5 2.1-.5 3.4v11.1h-5.1V31.2zm37.3 23.3h-5.1v-3.2h-.1c-.6 1.2-1.6 2.1-2.8 2.8-1.2.7-2.5 1.1-3.8 1.1-3.1 0-5.3-.7-6.6-2.3-1.4-1.5-2-3.8-2-6.9V31.2h5.1v14.3c0 2 .4 3.5 1.2 4.3.8.8 1.9 1.3 3.3 1.3 1.1 0 2-.2 2.7-.5.7-.3 1.3-.8 1.7-1.3.5-.5.8-1.2 1-2 .2-.8.3-1.6.3-2.5V31.3h5.1v23.2zm8.7-7.5c.2 1.5.7 2.5 1.7 3.2 1 .6 2.2.9 3.6.9.5 0 1 0 1.6-.1.6-.1 1.2-.2 1.7-.4s1-.5 1.3-.9c.3-.4.5-.9.5-1.6 0-.7-.3-1.2-.7-1.6-.5-.4-1-.7-1.7-1-.7-.2-1.5-.5-2.4-.7l-2.7-.6c-1-.2-1.9-.5-2.8-.8-.9-.3-1.7-.7-2.4-1.2s-1.3-1.2-1.7-2c-.4-.8-.6-1.8-.6-2.9 0-1.3.3-2.3.9-3.2.6-.9 1.4-1.5 2.3-2.1 1-.5 2-.9 3.2-1.1 1.2-.2 2.3-.3 3.3-.3 1.2 0 2.4.1 3.4.4 1.1.2 2.1.7 3 1.2.9.6 1.6 1.3 2.2 2.2.6.9 1 2 1.1 3.3h-5.4c-.2-1.2-.8-2.1-1.7-2.5-.9-.4-1.9-.6-3-.6-.4 0-.8 0-1.3.1s-1 .2-1.4.3c-.4.2-.8.4-1.1.7-.3.3-.5.7-.5 1.2 0 .6.2 1.1.7 1.5.4.4 1 .7 1.7 1 .7.2 1.5.5 2.4.7.9.2 1.8.4 2.8.6.9.2 1.8.5 2.7.8.9.3 1.7.7 2.4 1.2s1.3 1.2 1.7 1.9c.4.7.7 1.7.7 2.9 0 1.4-.3 2.5-1 3.5-.6 1-1.5 1.7-2.4 2.3-1 .6-2.1 1-3.4 1.3-1.2.3-2.4.4-3.7.4-1.5 0-2.8-.2-4.1-.5-1.2-.3-2.3-.8-3.2-1.5-.9-.7-1.6-1.5-2.2-2.5-.5-1-.8-2.2-.8-3.6l5.3.1zm16.9-15.8h3.9v-7h5.1v7h4.6V35h-4.6v12.4c0 .5 0 1 .1 1.4 0 .4.2.7.3 1 .2.3.4.5.7.6.3.1.8.2 1.4.2h1.1c.4 0 .7-.1 1.1-.2v4c-.6.1-1.1.1-1.7.2-.5.1-1.1.1-1.7.1-1.4 0-2.4-.1-3.3-.4-.8-.2-1.5-.6-1.9-1.1-.5-.5-.8-1.1-1-1.9-.2-.7-.3-1.6-.3-2.6V35.1h-3.9l.1-3.9zm17.3 0h4.9v3.2h.1c.7-1.4 1.7-2.3 3-2.9 1.3-.6 2.7-.9 4.2-.9 1.8 0 3.4.3 4.8 1 1.4.6 2.5 1.5 3.4 2.7.9 1.1 1.6 2.5 2 3.9.5 1.5.7 3.1.7 4.8 0 1.6-.2 3.1-.6 4.5-.4 1.5-1 2.8-1.8 3.9s-1.9 2-3.1 2.7c-1.3.7-2.7 1-4.5 1-.7 0-1.5-.1-2.2-.2-.7-.1-1.5-.4-2.2-.7-.7-.3-1.3-.7-1.9-1.2-.6-.5-1.1-1-1.5-1.6h-.1V63h-5.1V31.2h-.1zm17.9 11.7c0-1-.1-2.1-.4-3.1-.3-1-.7-1.9-1.2-2.6-.5-.8-1.2-1.4-2-1.8-.8-.5-1.7-.7-2.8-.7-2.2 0-3.8.7-4.9 2.2-1.1 1.5-1.6 3.5-1.6 6 0 1.2.1 2.3.4 3.3.3 1 .7 1.9 1.3 2.6.6.7 1.2 1.3 2 1.7.8.4 1.7.6 2.8.6 1.2 0 2.2-.2 3-.7.8-.5 1.5-1.1 2-1.9.5-.8.9-1.6 1.1-2.6.2-1 .3-2 .3-3zm9-20.5h5.1v4.9h-5.1v-4.9zm0 8.8h5.1v23.3h-5.1V31.2zm9.7-8.8h5.1v32.1h-5.1V22.4zm20.9 32.7c-1.9 0-3.5-.3-5-.9-1.5-.6-2.7-1.5-3.7-2.5-1-1.1-1.8-2.4-2.3-3.9-.5-1.5-.8-3.2-.8-4.9 0-1.8.3-3.4.8-4.9.5-1.5 1.3-2.8 2.3-3.9 1-1.1 2.2-1.9 3.7-2.5 1.5-.6 3.1-.9 5-.9s3.5.3 5 .9c1.5.6 2.7 1.5 3.7 2.5 1 1.1 1.8 2.4 2.3 3.9.5 1.5.8 3.1.8 4.9 0 1.8-.3 3.4-.8 4.9-.5 1.5-1.3 2.8-2.3 3.9-1 1.1-2.2 1.9-3.7 2.5-1.5.6-3.1.9-5 .9zm0-4c1.1 0 2.1-.2 3-.7.8-.5 1.5-1.1 2.1-1.9.5-.8.9-1.7 1.2-2.6.2-1 .4-2 .4-3s-.1-2-.4-3c-.2-1-.7-1.9-1.2-2.6-.5-.8-1.2-1.4-2.1-1.9-.8-.5-1.8-.7-3-.7-1.1 0-2.1.2-3 .7-.8.5-1.5 1.1-2.1 1.9-.5.8-.9 1.6-1.2 2.6-.2 1-.4 2-.4 3s.1 2 .4 3c.2 1 .7 1.9 1.2 2.6.5.8 1.2 1.4 2.1 1.9.9.5 1.9.7 3 .7zm13.2-19.9h3.9v-7h5.1v7h4.6V35h-4.6v12.4c0 .5 0 1 .1 1.4 0 .4.2.7.3 1 .2.3.4.5.7.6.3.1.8.2 1.4.2h1.1c.4 0 .7-.1 1.1-.2v4c-.6.1-1.1.1-1.7.2-.5.1-1.1.1-1.7.1-1.4 0-2.4-.1-3.3-.4-.8-.2-1.5-.6-1.9-1.1-.5-.5-.8-1.1-1-1.9-.2-.7-.3-1.6-.3-2.6V35.1h-3.9l.1-3.9z" fill="#fff"/><path d="M61.5 22.4H38L30.8 0l-7.3 22.4L0 22.3l19 13.8-7.3 22.3 19-13.8 19 13.8-7.3-22.3 19.1-13.7z" fill="#04da8d"/><path d="M44.2 41.2l-1.6-5.1-11.8 8.5 13.4-3.4z" fill="#005128"/></g></g></svg>